<?xml version="1.0" standalone="no"?>
<!DOCTYPE svg PUBLIC "-//W3C//DTD SVG 20010904//EN"
 "http://www.w3.org/TR/2001/REC-SVG-20010904/DTD/svg10.dtd">
<svg version="1.0" xmlns="http://www.w3.org/2000/svg"
 width="300.000000pt" height="300.000000pt" viewBox="0 0 300.000000 300.000000"
 preserveAspectRatio="xMidYMid meet">

<g transform="translate(0.000000,300.000000) scale(0.100000,-0.100000)"
fill="#000000" stroke="none">
<path d="M1499 2993 c0 -5 0 -64 1 -132 1 -116 0 -125 -22 -149 l-23 -25 32
23 c18 13 30 27 27 31 -2 4 1 11 7 15 8 4 9 3 5 -4 -10 -17 -4 -15 47 13 61
34 203 82 300 100 167 32 340 14 472 -49 148 -72 311 -217 372 -331 74 -141
132 -327 133 -426 0 -85 -30 -223 -74 -334 -24 -60 -49 -128 -56 -150 -21 -66
-67 -151 -102 -185 -41 -42 -85 -60 -143 -60 -57 0 -102 19 -151 63 -37 32
-114 56 -114 35 0 -23 35 -86 99 -181 101 -149 125 -205 125 -292 0 -78 -21
-131 -71 -176 -29 -28 -92 -54 -102 -43 -3 4 -1 9 5 11 101 36 144 95 144 199
0 87 -22 138 -123 286 -78 116 -107 174 -107 220 0 9 -4 19 -8 22 -17 11 -33
-73 -42 -224 -18 -288 -20 -294 -139 -430 -45 -51 -91 -110 -102 -133 -25 -48
-39 -36 -39 33 0 42 28 114 77 200 65 114 93 206 93 308 0 24 8 55 18 69 9 15
20 57 24 93 3 36 9 85 13 110 l6 45 -21 -45 c-32 -67 -80 -209 -80 -235 0 -49
-51 -220 -94 -312 -25 -54 -61 -143 -81 -198 -53 -145 -146 -332 -206 -411
-28 -38 -52 -74 -53 -81 -1 -7 -12 -23 -23 -35 -19 -20 -22 -37 -25 -126 l-3
-102 753 0 752 0 0 1500 0 1500 -750 0 c-412 0 -750 -3 -751 -7z"/>
<path d="M1885 2833 c-44 -9 -74 -18 -67 -20 6 -3 9 -9 6 -14 -3 -6 11 -2 33
7 65 29 212 47 198 24 -3 -5 -24 -10 -45 -10 -21 0 -42 -4 -45 -10 -3 -5 -15
-10 -27 -10 -11 0 -60 -13 -110 -30 -96 -32 -128 -38 -88 -15 30 17 21 20 -14
4 -26 -12 -46 -55 -21 -45 8 3 17 1 20 -4 3 -5 -4 -11 -15 -15 -11 -4 -18 -10
-15 -15 6 -10 -24 -35 -32 -26 -4 4 -1 11 7 16 12 8 12 10 1 10 -11 0 -11 3 0
17 13 15 12 15 -8 4 -13 -6 -23 -8 -23 -3 0 5 10 17 23 26 22 16 22 16 -5 4
-16 -6 -28 -17 -28 -24 0 -6 -26 -27 -57 -46 -77 -44 -82 -45 -54 -14 37 40
18 31 -28 -13 -37 -36 -39 -41 -28 -65 10 -22 12 -23 15 -7 2 11 10 25 18 31
17 15 17 10 4 -26 -9 -24 -9 -25 5 -14 13 11 15 6 15 -42 0 -60 14 -113 38
-141 23 -26 24 -16 4 36 -10 26 -21 44 -25 41 -4 -4 -7 15 -7 42 0 27 -3 65
-5 84 -7 42 9 74 25 50 6 -9 10 -10 10 -3 0 15 68 68 77 59 8 -8 -68 -75 -86
-76 -9 0 -11 -7 -7 -22 3 -13 6 -43 6 -68 1 -36 3 -41 11 -27 5 9 7 22 3 29
-4 6 -3 8 4 4 6 -3 15 2 21 11 14 24 27 4 36 -56 3 -25 9 -57 13 -71 l6 -25 6
29 c7 42 27 45 24 4 -3 -33 -3 -32 7 5 11 38 29 51 29 20 0 -9 13 3 28 28 31
48 62 78 62 61 0 -6 -16 -37 -35 -69 -19 -32 -35 -62 -35 -68 0 -5 4 -3 10 5
14 23 23 4 10 -20 -10 -18 -14 -20 -21 -9 -5 9 -8 -6 -7 -41 1 -43 2 -46 5
-17 2 20 8 37 12 37 5 0 7 -12 4 -27 -2 -16 4 -5 13 22 19 61 41 87 28 35 -4
-19 -8 -57 -7 -84 0 -44 -1 -47 -13 -31 -8 11 -14 13 -14 6 0 -7 -5 -9 -12 -5
-9 5 -9 2 1 -9 15 -19 77 -24 65 -6 -4 7 0 9 14 5 17 -6 21 -1 27 31 11 61 77
175 92 159 4 -3 -10 -39 -30 -80 -62 -124 -61 -196 4 -202 19 -1 28 0 21 3 -6
2 -10 9 -7 14 4 5 1 17 -5 26 -9 16 -10 15 -5 -4 4 -13 2 -23 -4 -23 -31 0
-26 99 10 174 29 62 37 46 9 -18 -11 -26 -20 -60 -19 -74 l1 -27 8 25 c8 25 8
24 9 -5 2 -47 12 -75 28 -75 10 0 11 -5 4 -17 -6 -13 -5 -22 5 -31 12 -11 14
-6 14 31 0 49 38 118 85 155 44 35 40 19 -11 -47 -37 -48 -48 -70 -52 -109 -3
-35 0 -53 11 -64 14 -13 47 -81 47 -95 0 -3 -8 1 -17 8 -14 12 -14 9 2 -18 33
-56 103 -37 179 48 45 50 64 63 47 32 -18 -34 -96 -105 -134 -123 l-38 -17 23
-15 c60 -39 122 -32 180 20 45 41 51 29 7 -16 -30 -31 -81 -52 -127 -52 -19 0
-23 -5 -20 -22 3 -20 10 -23 57 -26 65 -4 103 10 137 51 13 16 27 27 30 25 8
-9 -47 -68 -79 -85 -18 -9 -55 -16 -84 -16 -54 0 -62 -7 -43 -37 6 -9 13 -11
18 -5 4 6 27 11 52 12 42 1 43 1 18 -10 -16 -6 -28 -15 -28 -20 0 -15 76 -1
121 23 23 11 43 19 46 17 9 -9 -60 -50 -105 -62 l-47 -13 41 -1 c31 -1 52 7
89 34 49 34 69 39 45 10 -19 -23 -79 -57 -112 -64 l-30 -6 23 -29 c60 -76 196
-75 261 3 15 17 29 31 31 31 3 0 4 -13 3 -29 -1 -28 -34 -76 -44 -66 -3 3 5
17 19 32 19 21 15 20 -20 -8 -41 -32 -47 -34 -123 -34 -76 0 -78 -1 -47 -13
18 -8 46 -11 62 -8 19 4 26 2 21 -5 -4 -8 1 -9 17 -5 23 7 23 7 5 -8 -22 -18
-46 -21 -46 -6 0 6 -15 10 -32 10 -25 0 -29 -3 -18 -10 12 -8 10 -10 -8 -10
-13 0 -32 5 -43 10 -10 6 -19 8 -19 6 0 -9 53 -33 87 -39 17 -3 45 -2 62 3 31
9 44 -3 15 -14 -51 -19 -140 1 -187 42 -18 16 -18 15 -15 -18 2 -19 8 -35 15
-35 6 0 15 -3 19 -7 4 -5 12 -8 18 -8 6 0 0 9 -14 20 -14 11 -22 20 -19 20 17
0 83 -33 103 -52 l21 -21 -30 7 c-27 6 -28 5 -10 -6 11 -6 41 -12 67 -12 51 0
55 -11 8 -21 -34 -7 -95 9 -125 34 -20 16 -20 16 0 -8 23 -26 57 -45 100 -55
22 -5 26 -4 15 4 -12 8 -9 10 13 10 15 0 43 7 62 14 38 16 49 6 13 -12 -13 -6
-17 -11 -10 -11 25 -2 103 83 132 144 17 35 30 69 30 76 0 8 12 39 26 69 14
31 21 56 15 58 -5 2 -7 10 -4 18 4 12 8 13 13 3 10 -16 56 129 71 223 8 51 8
77 0 95 -14 30 -14 43 -1 23 7 -11 10 -5 10 23 0 24 -4 36 -10 32 -7 -4 -9 2
-5 18 9 33 -8 92 -65 224 -53 123 -101 202 -152 248 -22 20 -26 22 -13 6 l20
-24 -22 12 c-12 6 -39 32 -60 57 -46 55 -154 124 -243 155 -85 30 -277 36
-395 12z m265 -22 c-22 -7 -20 -9 20 -15 59 -11 90 -29 35 -21 -71 10 -95 16
-95 24 0 4 -21 4 -47 0 -87 -14 -115 -6 -41 11 43 10 163 11 128 1z m141 -6
c49 -17 124 -64 116 -71 -3 -3 -22 6 -44 20 -21 13 -62 32 -90 41 -29 10 -53
19 -53 21 0 8 29 3 71 -11z m10 -35 c13 -10 20 -19 16 -20 -11 0 -67 29 -67
35 0 12 30 3 51 -15z m-276 0 c4 -6 -16 -10 -52 -10 -41 0 -54 3 -43 10 20 13
87 13 95 0z m-185 -29 c0 -10 -34 -21 -64 -21 -38 0 7 25 52 29 6 0 12 -3 12
-8z m621 -38 c13 -15 12 -15 -11 -3 -34 17 -36 20 -18 20 9 0 22 -7 29 -17z
m-581 -3 c-20 -13 -40 -13 -40 0 0 6 12 10 28 10 21 0 24 -2 12 -10z m160 0
c0 -5 -22 -10 -50 -10 -27 0 -50 5 -50 10 0 6 23 10 50 10 28 0 50 -4 50 -10z
m85 0 c-3 -5 -13 -10 -21 -10 -8 0 -14 5 -14 10 0 6 9 10 21 10 11 0 17 -4 14
-10z m-405 -55 c-7 -8 -17 -15 -22 -15 -6 0 -5 7 2 15 7 8 17 15 22 15 6 0 5
-7 -2 -15z m619 -49 c-10 -22 -9 -29 6 -46 21 -23 34 -18 15 5 -12 14 -10 16
16 10 23 -5 26 -4 14 5 -13 9 -12 11 5 8 12 -2 20 -11 20 -22 0 -11 6 -21 13
-24 7 -2 11 2 10 8 -2 7 5 14 15 15 24 4 21 -11 -5 -29 -31 -22 -70 -20 -101
4 -31 24 -40 60 -26 97 9 24 12 26 20 11 6 -11 5 -26 -2 -42z m-839 16 c0 -11
-22 -32 -32 -32 -5 0 -4 9 2 20 11 20 30 28 30 12z m260 -27 c-18 -19 -31 -38
-27 -41 8 -8 -17 -56 -39 -75 -16 -13 -17 -12 -12 8 3 12 1 24 -6 26 -7 3 -5
16 8 41 11 20 25 35 32 32 6 -2 22 6 35 20 12 13 27 24 33 24 5 0 -5 -16 -24
-35z m226 20 c17 -13 16 -14 -13 -4 -34 11 -42 19 -20 19 7 0 22 -7 33 -15z
m504 -5 c0 -11 -4 -20 -10 -20 -5 0 -10 9 -10 20 0 11 5 20 10 20 6 0 10 -9
10 -20z m-810 3 c-1 -10 -47 -63 -55 -63 -12 0 -3 25 17 47 21 23 38 30 38 16z
m920 -46 c0 -6 -11 0 -25 13 -14 13 -25 28 -25 33 0 6 11 0 25 -13 14 -13 25
-28 25 -33z m-537 -9 c22 -11 37 -22 34 -24 -6 -6 -117 43 -117 51 0 9 37 -3
83 -27z m-233 3 c0 -6 -4 -13 -10 -16 -5 -3 -10 1 -10 9 0 9 5 16 10 16 6 0
10 -4 10 -9z m400 -26 c13 -14 19 -25 13 -25 -5 0 -20 11 -33 25 -13 14 -19
25 -13 25 5 0 20 -11 33 -25z m461 -80 c34 -69 14 -48 -37 39 -26 45 -29 55
-13 40 11 -10 34 -46 50 -79z m-1031 49 c0 -14 -4 -23 -9 -20 -5 3 -7 15 -4
26 7 28 13 25 13 -6z m231 -10 c-17 -21 -19 -29 -9 -35 10 -6 9 -12 -6 -26
-18 -17 -19 -17 -12 1 5 15 4 16 -7 8 -7 -6 -18 -7 -25 -3 -10 6 -10 16 4 44
10 21 21 37 26 37 11 0 10 -7 -3 -33 -6 -12 2 -7 16 11 32 39 47 35 16 -4z
m336 14 c18 -21 65 -90 52 -78 -33 31 -89 100 -82 100 5 0 19 -10 30 -22z
m234 2 c-13 -11 -28 -20 -35 -20 -6 0 0 9 14 20 33 26 52 25 21 0z m-280 -21
c30 -21 125 -147 117 -154 -3 -3 -20 16 -39 42 -18 27 -54 67 -78 90 -48 46
-48 56 0 22z m423 5 c5 -14 4 -15 -9 -4 -17 14 -19 20 -6 20 5 0 12 -7 15 -16z
m-798 -35 c-9 -22 -15 -27 -15 -16 -1 21 18 61 25 54 3 -3 -2 -20 -10 -38z
m184 -14 c-13 -14 -26 -23 -28 -20 -3 3 5 16 18 30 13 14 26 23 28 20 3 -3 -5
-16 -18 -30z m615 -35 c-10 -11 -20 -18 -23 -15 -7 6 18 35 31 35 5 0 2 -9 -8
-20z m-592 -12 c-11 -13 -27 -34 -36 -48 -12 -18 -17 -20 -17 -8 0 19 47 78
63 78 6 0 1 -10 -10 -22z m30 -15 c-16 -15 -38 -41 -48 -56 -26 -40 -31 -25
-5 17 22 37 69 80 78 71 3 -2 -9 -17 -25 -32z m537 -40 c0 -21 -3 -24 -9 -14
-5 8 -7 20 -4 28 8 21 13 15 13 -14z m-780 -29 c0 -27 -4 -43 -10 -39 -11 7
-13 45 -4 69 10 26 14 18 14 -30z m819 -10 c4 3 17 -2 27 -10 17 -14 17 -15 2
-10 -10 3 -18 0 -18 -5 0 -7 11 -9 25 -7 13 3 22 1 19 -3 -10 -17 -46 -9 -65
14 -10 12 -18 36 -18 52 l1 30 9 -33 c5 -18 13 -30 18 -28z m142 10 c12 -25
18 -48 16 -51 -4 -4 -47 81 -47 93 0 16 14 -4 31 -42z m-936 -14 c2 -16 -1
-30 -6 -30 -5 0 -9 17 -9 37 0 42 12 37 15 -7z m784 -49 c30 -17 50 -13 76 14
28 27 35 12 8 -17 -26 -28 -87 -24 -112 8 -11 15 -18 31 -14 37 4 6 10 2 14
-11 4 -11 17 -25 28 -31z m-516 -9 c-15 -24 -18 -47 -16 -101 2 -64 1 -70 -17
-68 -11 1 -20 7 -20 14 0 8 -7 16 -15 19 -18 7 -20 62 -3 99 12 28 34 35 23 8
-4 -10 -9 -29 -11 -43 l-4 -25 9 26 c11 35 31 71 49 92 23 26 26 13 5 -21z
m71 3 c-4 -8 -11 -15 -16 -15 -6 0 -5 6 2 15 7 8 14 15 16 15 2 0 1 -7 -2 -15z
m26 -20 c-13 -14 -26 -23 -28 -20 -7 7 29 45 41 45 6 0 0 -11 -13 -25z m-228
-10 c3 -14 2 -25 -2 -25 -4 0 -10 11 -12 25 -3 14 -2 25 2 25 4 0 10 -11 12
-25z m246 -12 c-21 -20 -40 -34 -43 -31 -3 3 8 20 25 37 17 17 37 31 43 31 6
0 -5 -17 -25 -37z m492 12 c-7 -8 -24 -15 -39 -15 -25 0 -24 1 9 18 40 20 49
19 30 -3z m90 -19 c-6 -19 -17 -40 -25 -46 -9 -8 -7 6 7 39 24 56 36 61 18 7z
m-564 -17 c-25 -28 -46 -55 -46 -60 0 -5 -5 -9 -10 -9 -18 0 17 55 55 89 53
46 53 38 1 -20z m-121 -79 c-8 -27 -14 -36 -14 -23 -1 24 17 78 24 71 2 -2 -2
-24 -10 -48z m155 15 c-7 -9 -15 -13 -18 -10 -3 2 1 11 8 20 7 9 15 13 18 10
3 -2 -1 -11 -8 -20z m165 -6 c9 -17 14 -33 11 -36 -4 -4 -36 49 -36 62 0 13
11 2 25 -26z m340 2 c-3 -6 -11 -11 -17 -11 -6 0 -6 6 2 15 14 17 26 13 15 -4z
m-561 -62 c-24 -27 -103 -79 -121 -79 -23 0 -14 18 12 24 22 6 24 9 15 26 -7
14 -7 20 0 20 5 0 10 7 10 15 0 8 4 15 10 15 5 0 7 -13 3 -32 l-6 -32 30 22
c16 11 36 28 43 37 7 8 15 13 18 10 3 -3 -3 -15 -14 -26z m-128 -16 c16 -21
18 -37 4 -28 -13 8 -33 45 -24 45 4 0 13 -8 20 -17z m704 -56 c-7 -17 -9 -10
-9 28 1 43 2 46 9 22 5 -16 5 -38 0 -50z m-180 48 c20 -24 6 -28 -15 -5 -10
11 -13 20 -8 20 6 0 16 -7 23 -15z m205 -102 c-3 -13 -10 -23 -16 -23 -7 0 -8
7 -4 18 4 9 10 42 13 72 l7 55 3 -49 c2 -27 1 -60 -3 -73z m-565 37 c-14 -11
-31 -20 -39 -20 -17 0 -11 7 26 30 36 22 45 14 13 -10z m179 -2 c-5 -18 -9
-34 -9 -35 0 -2 -4 -3 -9 -3 -5 0 -4 15 2 35 13 44 29 47 16 3z m225 -16 c16
-31 31 -102 22 -102 -3 0 -11 21 -17 46 -7 25 -23 60 -38 76 -23 29 -24 30 -3
19 12 -6 28 -24 36 -39z m-359 2 c-16 -13 -45 -28 -64 -34 -37 -10 -81 -4 -81
12 0 5 9 7 20 3 25 -8 92 11 122 34 12 11 25 17 28 14 3 -3 -8 -16 -25 -29z
m265 -47 c0 -15 -5 -11 -20 18 -25 49 -25 57 0 26 11 -13 20 -33 20 -44z
m-200 -11 c0 -3 -4 -8 -10 -11 -5 -3 -10 -1 -10 4 0 6 5 11 10 11 6 0 10 -2
10 -4z m436 -42 c-4 -14 -9 -24 -12 -21 -3 2 -2 17 2 31 3 15 9 25 11 22 3 -3
2 -17 -1 -32z m-483 5 c-14 -14 -88 -23 -110 -13 -17 8 -9 9 107 22 10 2 11
-1 3 -9z m127 -18 c0 -10 -90 -54 -97 -47 -3 2 17 16 44 30 56 29 53 28 53 17z
m84 -3 c-13 -24 -37 -48 -47 -48 -6 0 2 14 18 30 31 32 41 38 29 18z m219 -18
c-3 -11 -9 -20 -13 -20 -5 0 -6 9 -3 20 3 11 9 20 13 20 5 0 6 -9 3 -20z m-82
-81 c5 -3 2 -14 -7 -25 -13 -15 -15 -16 -10 -2 3 12 1 15 -10 11 -14 -5 -14 1
3 45 5 15 7 15 11 -3 2 -11 8 -23 13 -26z m-82 9 c-15 -30 -40 -58 -51 -58 -8
0 52 79 60 80 1 0 -3 -10 -9 -22z m-39 -7 c-16 -31 -32 -36 -18 -7 6 14 15 26
20 26 5 0 4 -9 -2 -19z m189 -41 c0 -29 -2 -31 -9 -15 -5 11 -9 34 -9 50 -1
23 2 26 9 15 5 -8 9 -31 9 -50z m-249 -26 c0 -11 -56 -25 -77 -19 -39 9 -26
20 27 22 28 1 50 0 50 -3z m210 -25 c-7 -11 -14 -18 -17 -15 -3 3 0 12 7 21
18 21 23 19 10 -6z m-250 -4 c30 0 69 4 85 8 27 7 26 6 -9 -14 -48 -26 -136
-23 -164 5 -16 17 -16 18 8 10 14 -5 50 -9 80 -9z m251 -68 c-16 -16 -20 -5
-8 23 9 22 11 23 14 6 3 -10 0 -23 -6 -29z m-60 14 c-13 -24 -69 -71 -84 -71
-9 0 80 88 91 90 1 0 -2 -9 -7 -19z m-17 -63 c-12 -22 -47 -58 -56 -58 -5 0 6
16 24 35 35 37 44 43 32 23z m29 -5 c-14 -37 -46 -84 -63 -93 -34 -18 -33 -10
3 29 19 21 38 48 42 60 3 12 10 21 15 21 5 0 6 -8 3 -17z m7 -39 c-30 -48 -36
-37 -8 14 13 23 24 37 26 32 2 -6 -6 -26 -18 -46z m-120 -14 c-8 -6 -26 -9
-40 -9 -22 0 -21 2 10 13 37 14 54 11 30 -4z"/>
<path d="M1693 2777 c-90 -37 -185 -92 -211 -121 -11 -13 -5 -11 18 6 58 43
143 87 226 118 44 16 72 29 64 29 -8 1 -52 -14 -97 -32z"/>
<path d="M1409 2643 c-13 -16 -12 -17 4 -4 9 7 17 15 17 17 0 8 -8 3 -21 -13z"/>
<path d="M1437 2551 c-4 -17 -3 -21 5 -13 5 5 8 16 6 23 -3 8 -7 3 -11 -10z"/>
<path d="M1480 2495 l-3 -40 -7 35 -7 35 -2 -37 c-1 -28 3 -38 14 -38 8 0 15
-8 15 -18 0 -10 7 -27 16 -38 14 -18 15 -18 4 4 -6 12 -15 48 -19 80 -8 54 -9
55 -11 17z"/>
<path d="M1586 2482 c-13 -29 -15 -43 -6 -62 9 -23 10 -22 4 8 -8 44 10 41 24
-5 l11 -38 -7 35 c-4 19 -6 50 -6 68 0 17 0 32 -1 32 -1 0 -10 -17 -19 -38z"/>
<path d="M1361 2484 c0 -11 3 -14 6 -6 3 7 2 16 -1 19 -3 4 -6 -2 -5 -13z"/>
<path d="M1418 2453 c-3 -10 1 -36 7 -58 l13 -40 -6 55 c-5 62 -8 68 -14 43z"/>
<path d="M1362 2430 c0 -14 2 -19 5 -12 2 6 2 18 0 25 -3 6 -5 1 -5 -13z"/>
<path d="M1460 2414 c0 -10 5 -26 10 -34 8 -11 9 -7 4 15 -8 37 -14 45 -14 19z"/>
<path d="M1626 2360 c3 -14 10 -29 15 -34 14 -16 10 6 -7 34 l-15 25 7 -25z"/>
<path d="M1390 2325 c0 -5 5 -17 10 -25 5 -8 10 -10 10 -5 0 6 -5 17 -10 25
-5 8 -10 11 -10 5z"/>
<path d="M1511 2304 c0 -11 3 -14 6 -6 3 7 2 16 -1 19 -3 4 -6 -2 -5 -13z"/>
<path d="M1570 2290 c-6 -11 -8 -20 -6 -20 3 0 10 9 16 20 6 11 8 20 6 20 -3
0 -10 -9 -16 -20z"/>
<path d="M1639 2239 c-28 -39 -89 -65 -158 -68 -65 -2 -83 -11 -22 -11 35 0
42 -3 39 -17 -2 -10 -9 -17 -14 -16 -5 1 -10 -7 -10 -18 0 -10 4 -19 8 -19 4
0 8 6 8 14 0 16 17 31 48 40 33 11 27 -8 -10 -27 l-33 -18 30 7 c17 4 40 7 53
7 12 -1 22 5 22 13 0 8 -6 11 -15 8 -31 -12 -13 13 24 34 40 23 70 52 54 52
-6 0 -18 -9 -28 -20 -10 -11 -23 -20 -28 -20 -6 0 0 12 14 28 35 38 52 62 46
62 -3 0 -16 -14 -28 -31z"/>
<path d="M1383 2253 c9 -2 25 -2 35 0 9 3 1 5 -18 5 -19 0 -27 -2 -17 -5z"/>
<path d="M1415 2215 c-25 -12 -26 -14 -5 -9 14 4 29 10 35 15 12 12 5 11 -30
-6z"/>
<path d="M1560 2210 c-13 -8 -13 -10 2 -10 9 0 20 5 23 10 8 13 -5 13 -25 0z"/>
<path d="M1756 2168 c-3 -13 -12 -62 -21 -110 -13 -74 -35 -158 -62 -237 -4
-11 -1 -10 10 4 19 23 22 7 5 -30 -13 -28 -30 -34 -22 -7 3 9 -10 -14 -29 -53
-18 -38 -46 -89 -61 -113 -15 -23 -24 -47 -21 -53 4 -5 1 -8 -6 -7 -8 2 -14
-7 -15 -20 -1 -13 -9 -31 -19 -40 -17 -16 -17 -15 0 13 l18 30 -25 -30 c-23
-26 -24 -32 -12 -50 12 -19 11 -24 -6 -43 l-20 -22 41 -6 c38 -6 40 -8 24 -21
-11 -7 -14 -13 -8 -13 5 0 18 9 28 20 18 19 17 20 -3 20 -27 0 -52 10 -52 21
0 4 24 6 53 4 41 -4 45 -3 17 3 -58 13 -78 33 -44 46 8 3 13 2 10 -3 -3 -5 2
-12 11 -15 9 -4 20 -2 23 5 6 8 13 8 28 0 15 -8 23 -7 32 4 11 13 8 15 -19 15
-36 0 -71 15 -71 31 0 6 5 7 12 3 18 -12 98 -22 92 -12 -3 4 -11 8 -18 8 -7 0
-13 12 -13 30 0 23 4 29 14 25 8 -3 21 -5 29 -5 11 0 14 -7 9 -22 -5 -21 -5
-21 9 2 21 35 20 40 -12 40 -16 0 -37 7 -48 15 -17 14 -14 14 41 10 56 -4 55
-2 -2 11 -46 9 -21 20 40 17 55 -3 59 -2 32 9 -29 11 -45 25 -45 40 0 11 64
-3 72 -16 5 -7 8 -5 8 5 0 12 -12 19 -42 23 -46 7 -76 21 -67 31 4 3 26 1 50
-4 48 -11 92 3 125 40 17 18 16 19 -19 19 -21 0 -37 5 -37 11 0 6 17 9 41 8
42 -3 49 2 63 49 7 20 4 22 -28 22 -20 0 -36 5 -36 10 0 6 8 10 18 10 10 0 13
3 6 8 -6 4 -16 17 -23 30 -11 20 -10 22 14 22 15 0 35 -5 45 -10 14 -7 30 -6
60 6 37 15 54 34 30 34 -21 0 -9 20 13 21 12 0 16 3 9 6 -8 3 -24 0 -37 -7
-12 -7 -31 -10 -41 -7 -14 3 -12 5 7 6 14 0 26 7 27 14 2 22 7 42 17 57 5 8
-8 2 -29 -14 -44 -33 -55 -29 -30 11 l17 28 -26 -30 c-30 -36 -46 -29 -17 8
32 40 23 44 -15 7 -24 -23 -31 -36 -23 -41 8 -5 5 -18 -13 -43 -13 -20 -27
-36 -31 -36 -13 0 -9 10 13 41 11 16 17 34 14 40 -4 5 1 19 11 30 15 17 27 59
17 59 -2 0 -15 -12 -28 -26 -27 -29 -31 -20 -16 34 6 19 6 30 1 27 -5 -3 -15
-24 -21 -45 -7 -22 -16 -40 -21 -40 -5 0 -7 8 -4 18 10 36 18 92 12 92 -3 0
-8 -10 -10 -22z m-2 -171 c-15 -47 -25 -70 -30 -65 -8 9 19 97 28 92 5 -3 6
-15 2 -27z m156 -38 c24 -7 24 -7 -5 -8 -39 -1 -75 9 -75 20 0 9 23 5 80 -12z
m-50 -120 c0 -14 -7 -19 -29 -19 -35 0 -91 19 -91 31 0 11 3 11 34 -1 19 -7
24 -6 20 3 -3 10 5 12 31 9 26 -3 35 -9 35 -23z m-94 -69 c19 0 34 -4 34 -10
0 -11 -59 -14 -84 -4 -9 3 -16 11 -16 16 0 6 7 7 16 4 9 -3 31 -6 50 -6z"/>
<path d="M1644 2170 c-12 -5 -25 -14 -29 -20 -4 -7 7 -4 24 4 17 9 31 19 31
21 0 6 1 6 -26 -5z"/>
<path d="M1328 2153 c7 -3 16 -2 19 1 4 3 -2 6 -13 5 -11 0 -14 -3 -6 -6z"/>
<path d="M1620 2104 c-36 -19 -94 -40 -130 -48 -36 -8 -56 -14 -44 -15 24 -1
54 -30 54 -52 0 -8 6 -21 13 -28 10 -11 8 -11 -10 -2 -36 19 -27 5 13 -18 35
-21 84 -28 84 -13 0 4 15 14 34 20 19 7 40 19 46 27 11 13 7 13 -30 0 -49 -17
-90 -20 -90 -5 0 6 9 10 20 10 11 0 20 5 20 10 0 6 7 10 15 10 8 0 15 5 15 11
0 6 10 20 23 30 l22 20 -32 -16 c-48 -23 -40 -1 10 28 24 14 50 34 58 44 8 9
-6 3 -30 -15 -54 -38 -70 -32 -21 9 42 35 41 35 -40 -7z m-40 -49 c0 -8 -15
-19 -32 -24 l-33 -9 33 -1 c40 -1 43 -21 2 -21 -28 0 -70 25 -70 42 0 5 15 8
33 8 17 0 39 5 47 10 20 13 20 13 20 -5z m-37 -72 c-7 -2 -19 -2 -25 0 -7 3
-2 5 12 5 14 0 19 -2 13 -5z"/>
<path d="M1410 2116 c0 -7 40 -14 44 -7 3 4 -6 8 -20 9 -13 1 -24 0 -24 -2z"/>
<path d="M1368 2103 c6 -2 18 -2 25 0 6 3 1 5 -13 5 -14 0 -19 -2 -12 -5z"/>
<path d="M1328 2083 c7 -3 16 -2 19 1 4 3 -2 6 -13 5 -11 0 -14 -3 -6 -6z"/>
<path d="M1318 2053 c7 -3 16 -2 19 1 4 3 -2 6 -13 5 -11 0 -14 -3 -6 -6z"/>
<path d="M1678 2037 c-32 -26 -35 -37 -10 -36 9 0 12 3 5 6 -8 3 -3 13 15 28
34 31 26 32 -10 2z"/>
<path d="M1378 2033 c7 -3 16 -2 19 1 4 3 -2 6 -13 5 -11 0 -14 -3 -6 -6z"/>
<path d="M1428 2013 c7 -3 16 -2 19 1 4 3 -2 6 -13 5 -11 0 -14 -3 -6 -6z"/>
<path d="M1375 1950 c10 -11 20 -20 23 -20 3 0 -3 9 -13 20 -10 11 -20 20 -23
20 -3 0 3 -9 13 -20z"/>
<path d="M1410 1964 c0 -6 54 -31 80 -38 22 -6 22 -5 -5 11 -16 9 -33 16 -37
15 -5 -1 -8 2 -8 6 0 5 -7 9 -15 9 -8 0 -15 -2 -15 -3z"/>
<path d="M1420 1910 c-9 -6 -10 -10 -3 -10 6 0 15 5 18 10 8 12 4 12 -15 0z"/>
<path d="M1880 1910 c-13 -8 -13 -10 2 -10 9 0 20 5 23 10 8 13 -5 13 -25 0z"/>
<path d="M2035 1909 c-4 -6 -5 -12 -2 -15 2 -3 7 2 10 11 7 17 1 20 -8 4z"/>
<path d="M1455 1860 l-27 -35 32 33 c17 19 33 32 35 30 2 -1 5 -27 6 -55 3
-55 3 -55 -69 -150 -13 -18 -22 -33 -19 -33 3 0 23 24 44 53 21 28 65 84 99
123 l61 70 -68 0 c-66 -1 -69 -2 -94 -36z"/>
<path d="M1599 1830 c-30 -33 -54 -67 -54 -75 0 -7 -4 -17 -9 -22 -5 -5 -6 -2
-1 6 18 32 -13 -1 -44 -46 l-33 -48 36 40 c26 28 32 32 20 12 -11 -19 -15 -41
-12 -71 5 -39 1 -50 -34 -98 -34 -46 -34 -48 -6 -17 18 20 54 72 80 115 48 79
124 252 115 260 -3 3 -29 -22 -58 -56z m-69 -210 c-6 -11 -13 -20 -16 -20 -2
0 0 9 6 20 6 11 13 20 16 20 2 0 0 -9 -6 -20z"/>
<path d="M2012 1846 c-16 -44 -135 -243 -164 -273 -18 -20 -19 -23 -5 -23 9 0
16 3 15 8 -3 10 53 92 64 92 11 0 -8 -38 -35 -67 l-20 -23 36 0 c20 0 39 5 42
10 3 6 11 10 18 10 6 0 3 -9 -8 -19 -15 -14 -38 -21 -85 -23 -60 -4 -66 -6
-83 -36 -17 -29 -17 -31 -2 -26 16 7 16 5 0 -26 -9 -18 -20 -28 -24 -23 -3 6
-25 -20 -48 -58 -27 -43 -36 -66 -26 -62 14 5 13 2 -3 -26 -10 -17 -24 -29
-31 -27 -6 3 -19 -6 -27 -20 -9 -13 -12 -24 -6 -24 13 0 -11 -48 -51 -103 -33
-46 -31 -57 7 -33 30 20 48 11 20 -10 -14 -10 -16 -14 -5 -14 28 -1 -24 -30
-55 -31 -24 -1 -26 -3 -8 -6 12 -2 22 -9 22 -14 0 -13 -37 -11 -59 2 -12 8
-23 9 -35 2 -17 -9 -17 -11 -2 -16 11 -4 15 -3 10 4 -4 7 1 10 12 7 15 -2 20
-14 22 -56 3 -43 -1 -58 -24 -89 l-26 -38 28 33 c16 18 32 32 37 32 13 0 -23
-61 -39 -67 -11 -4 -12 -8 -4 -13 8 -5 3 -17 -15 -38 -15 -18 -24 -32 -21 -32
11 0 86 102 81 110 -3 5 0 12 6 16 8 4 9 3 5 -4 -4 -7 -2 -12 3 -12 19 0 12
-15 -38 -76 -57 -71 -40 -84 21 -15 79 90 252 371 228 371 -6 0 -9 4 -6 9 4 5
1 11 -5 13 -7 2 -4 15 8 36 18 32 40 45 29 17 -3 -8 -9 -22 -12 -30 -3 -8 -2
-15 3 -15 6 0 40 57 77 128 112 211 213 349 296 405 14 9 17 14 8 11 -10 -4
-18 -1 -18 5 0 6 8 11 18 12 15 0 15 1 -2 8 -14 5 -16 10 -8 15 19 11 14 29
-5 21 -42 -17 -47 -15 -23 5 23 21 23 22 4 16 -28 -9 -41 20 -15 34 25 13 36
41 13 33 -15 -6 -16 -5 -2 13 14 18 14 18 -6 2 -25 -22 -38 -23 -30 -3 8 22
-7 18 -22 -6 -17 -27 -27 -18 -12 10 6 12 7 21 2 21 -4 0 -14 -15 -20 -34z
m48 -40 c0 -2 -11 -6 -25 -8 -14 -3 -25 -1 -25 3 0 5 11 9 25 9 14 0 25 -2 25
-4z m-30 -36 c0 -5 -7 -10 -15 -10 -8 0 -15 5 -15 10 0 6 7 10 15 10 8 0 15
-4 15 -10z m0 -34 c-18 -18 -70 -32 -70 -19 0 5 15 14 33 20 46 15 53 15 37
-1z m60 -36 c0 -5 -4 -10 -10 -10 -5 0 -10 5 -10 10 0 6 5 10 10 10 6 0 10 -4
10 -10z m-76 -16 c28 -11 17 -20 -19 -16 -19 2 -35 8 -35 13 0 10 31 12 54 3z
m36 -49 c-18 -19 -36 -32 -39 -29 -6 6 54 64 66 64 4 0 -8 -16 -27 -35z m-56
-30 c-6 -16 -24 -21 -24 -7 0 11 11 22 21 22 5 0 6 -7 3 -15z m-35 -92 c-39
-66 -49 -78 -49 -64 0 18 52 101 63 101 5 0 -2 -17 -14 -37z m-84 -13 c18 -8
18 -9 -5 -10 -25 -1 -25 -1 5 -16 l30 -14 -39 4 c-47 6 -53 11 -36 31 14 17
17 17 45 5z m-14 -103 c-8 -8 -11 -7 -11 4 0 9 3 19 7 23 4 4 9 2 11 -4 3 -7
-1 -17 -7 -23z m-55 -16 c-7 -10 -76 -20 -76 -11 0 14 15 20 47 20 19 0 32 -4
29 -9z m64 -8 c0 -5 -4 -15 -10 -23 -11 -18 -25 -7 -17 15 6 15 27 21 27 8z
m-63 -67 c-2 -6 -11 -11 -20 -10 -9 0 -32 2 -49 3 l-33 2 23 19 c19 15 28 17
53 8 16 -6 28 -15 26 -22z m23 -11 c0 -12 -24 -55 -32 -55 -11 0 -10 4 4 35 9
21 28 35 28 20z m-52 -47 c-2 -6 -10 -14 -16 -16 -7 -2 -10 2 -6 12 7 18 28
22 22 4z m-88 -113 c-7 -8 -17 -15 -22 -15 -6 0 -5 7 2 15 7 8 17 15 22 15 6
0 5 -7 -2 -15z m0 -40 c-11 -13 -10 -14 4 -9 9 3 16 4 16 1 0 -10 -52 -97 -61
-103 -18 -11 -23 5 -7 23 9 10 21 29 28 43 12 23 12 24 -3 11 -10 -7 -17 -9
-17 -4 0 14 30 53 42 53 6 0 6 -6 -2 -15z m-80 -99 c0 -15 -18 -31 -26 -23 -7
7 7 37 17 37 5 0 9 -6 9 -14z m-73 -22 c-3 -3 -12 -4 -19 -1 -8 3 -5 6 6 6 11
1 17 -2 13 -5z m93 -12 c0 -4 -14 -24 -31 -45 -17 -20 -26 -37 -20 -37 18 0
13 -17 -14 -47 l-25 -28 11 30 c6 17 12 37 13 45 3 32 66 110 66 82z m-108
-189 c-11 -16 -30 -37 -43 -48 -12 -11 -5 1 16 28 43 52 57 63 27 20z"/>
<path d="M1942 1826 c-17 -19 -42 -59 -57 -88 l-27 -53 29 28 c16 15 32 25 35
22 3 -3 8 5 10 19 4 19 1 23 -11 18 -9 -3 1 13 22 36 34 39 43 52 33 52 -2 0
-18 -15 -34 -34z"/>
<path d="M1348 1843 c7 -3 16 -2 19 1 4 3 -2 6 -13 5 -11 0 -14 -3 -6 -6z"/>
<path d="M1372 1765 c0 -16 2 -22 5 -12 2 9 2 23 0 30 -3 6 -5 -1 -5 -18z"/>
<path d="M1899 1703 c-13 -16 -12 -17 4 -4 16 13 21 21 13 21 -2 0 -10 -8 -17
-17z"/>
<path d="M1759 1537 c-100 -190 -178 -305 -273 -407 -61 -65 -65 -71 -18 -25
34 33 62 56 62 51 0 -4 -14 -28 -32 -53 -17 -25 -26 -43 -19 -39 16 10 213
310 258 394 20 37 55 88 78 113 62 66 68 82 41 95 -22 10 -27 4 -97 -129z"/>
<path d="M2205 1650 c-3 -6 1 -7 9 -4 18 7 21 14 7 14 -6 0 -13 -4 -16 -10z"/>
<path d="M2145 1615 c-15 -19 -25 -40 -23 -47 3 -8 11 -1 21 17 9 17 16 24 17
17 0 -19 -19 -52 -31 -52 -5 0 -14 10 -18 23 -6 14 -7 -14 -5 -75 3 -59 1 -98
-5 -98 -5 0 -11 6 -14 13 -2 6 -4 -3 -5 -20 0 -18 4 -33 9 -33 15 0 10 -30 -6
-36 -19 -8 -29 -40 -27 -89 1 -31 0 -36 -8 -20 -7 16 -9 12 -9 -22 -1 -23 -4
-50 -8 -60 -6 -17 -6 -17 10 -1 9 9 17 21 17 27 0 6 5 11 10 11 6 0 10 -7 10
-15 0 -8 -4 -15 -10 -15 -5 0 -12 -11 -16 -24 -3 -14 -12 -27 -21 -30 -10 -4
-12 -13 -8 -27 5 -14 3 -19 -3 -15 -6 3 -15 -8 -21 -26 -6 -18 -25 -53 -41
-78 -38 -58 -38 -65 1 -29 18 16 34 28 36 25 8 -7 -49 -66 -64 -66 -7 0 -13
-5 -13 -12 0 -6 -8 -21 -17 -32 -10 -12 -11 -15 -3 -9 24 22 31 14 14 -13 -13
-19 -19 -22 -26 -12 -5 8 -6 2 -2 -16 4 -18 2 -31 -6 -36 -6 -4 -10 -15 -8
-25 2 -12 11 -2 27 31 13 27 41 70 62 95 21 26 48 63 60 83 12 20 24 35 26 32
3 -3 -4 -22 -17 -42 -14 -24 -16 -33 -6 -25 26 21 64 113 70 166 5 45 4 47 -5
16 -6 -18 -13 -31 -16 -28 -3 3 2 30 10 59 9 29 20 113 25 185 11 144 35 216
87 268 14 15 23 30 20 35 -3 5 3 13 12 19 23 14 7 14 -18 1 -15 -8 -19 -7 -19
4 0 10 -6 13 -17 9 -16 -6 -16 -5 -4 10 7 9 11 17 8 17 -3 0 -18 -16 -32 -35z
m53 -35 c-9 -6 -29 -35 -45 -66 -15 -30 -29 -50 -32 -43 -3 10 29 77 52 107 5
6 17 12 26 12 14 -1 14 -2 -1 -10z m-111 -352 c-2 -13 -4 -5 -4 17 -1 22 1 32
4 23 2 -10 2 -28 0 -40z m-64 -238 c-31 -47 -40 -45 -22 4 8 23 20 36 30 36
16 0 14 -5 -8 -40z"/>
<path d="M2276 1625 c4 -16 7 -30 8 -30 1 -1 18 -15 39 -33 21 -18 43 -32 50
-32 7 1 0 8 -15 16 -16 8 -28 19 -28 25 0 6 6 7 13 4 6 -4 -3 5 -20 20 -18 14
-37 34 -43 43 -8 13 -9 10 -4 -13z"/>
<path d="M1430 1610 c-12 -16 -19 -30 -16 -30 2 0 14 14 26 30 12 17 19 30 16
30 -2 0 -14 -13 -26 -30z"/>
<path d="M2210 1471 c0 -10 19 -25 25 -20 1 2 -3 10 -11 17 -8 7 -14 8 -14 3z"/>
<path d="M1379 1423 l-34 -38 38 34 c34 33 42 41 34 41 -2 0 -19 -17 -38 -37z"/>
<path d="M1459 1433 l-24 -28 28 24 c25 23 32 31 24 31 -2 0 -14 -12 -28 -27z"/>
<path d="M1960 1410 c-13 -28 -30 -56 -37 -62 -17 -14 -16 -4 2 32 9 17 13 30
10 30 -2 0 -16 -23 -30 -50 l-26 -51 26 7 c20 5 25 3 25 -13 0 -24 -29 -66
-30 -42 0 8 5 20 12 27 14 14 8 15 -26 2 -14 -5 -30 -18 -36 -29 -10 -19 -9
-20 15 -11 31 12 33 -3 3 -19 l-23 -12 22 5 c43 8 34 -14 -10 -25 -35 -8 -47
-18 -59 -43 l-16 -32 32 3 c30 4 30 4 -9 -15 -22 -11 -46 -30 -53 -42 -13 -21
-12 -22 20 -15 31 6 32 5 14 -10 -11 -8 -28 -15 -37 -15 -10 0 -20 -4 -24 -10
-3 -5 16 -3 42 5 26 8 49 12 51 10 18 -18 2 -125 -19 -125 -12 0 -12 1 7 45
15 36 14 37 -3 30 -10 -4 -38 -15 -63 -23 -45 -15 -80 -38 -80 -53 0 -7 71 9
115 27 20 7 20 7 1 -14 -12 -13 -40 -26 -76 -33 l-58 -11 -7 -54 c-4 -37 -15
-64 -33 -86 l-27 -33 32 23 c18 12 37 38 44 57 7 19 16 32 21 29 18 -11 5 -38
-42 -88 -27 -29 -50 -59 -50 -66 0 -10 -3 -10 -15 0 -9 8 -15 8 -15 2 0 -6 -3
-17 -6 -26 -5 -12 0 -13 23 -7 15 5 27 13 26 19 -1 5 11 15 27 22 16 6 56 40
89 74 46 49 59 68 54 85 -3 12 -1 21 6 21 6 0 11 -5 11 -12 0 -6 7 -3 15 8 27
35 203 599 191 611 -1 2 -13 -20 -26 -47z m-100 -240 c-20 -13 -40 -13 -40 0
0 6 12 10 28 10 21 0 24 -2 12 -10z m-130 -367 c0 -14 -19 -38 -25 -32 -8 8 5
39 16 39 5 0 9 -3 9 -7z"/>
<path d="M1525 1313 c-55 -54 -84 -85 -63 -69 53 40 58 15 9 -49 -23 -30 -39
-55 -36 -55 6 0 115 146 115 154 0 3 -8 3 -17 0 -15 -5 -15 -4 -3 4 8 6 17 9
21 7 3 -3 23 20 43 50 20 30 35 55 34 55 -2 -1 -48 -44 -103 -97z m-1 -44 c-3
-5 -10 -7 -15 -3 -5 3 -7 10 -3 15 3 5 10 7 15 3 5 -3 7 -10 3 -15z"/>
<path d="M1390 1355 c-24 -25 -42 -45 -39 -45 3 0 25 20 49 45 24 25 42 45 39
45 -3 0 -25 -20 -49 -45z"/>
<path d="M1454 1338 l-19 -23 23 19 c21 18 27 26 19 26 -2 0 -12 -10 -23 -22z"/>
<path d="M1490 1342 c0 -5 -22 -26 -50 -48 -27 -21 -49 -43 -50 -47 0 -8 117
80 126 95 3 4 -2 8 -10 8 -9 0 -16 -4 -16 -8z"/>
<path d="M1294 1298 l-19 -23 23 19 c21 18 27 26 19 26 -2 0 -12 -10 -23 -22z"/>
<path d="M1404 1298 l-19 -23 23 19 c21 18 27 26 19 26 -2 0 -12 -10 -23 -22z"/>
<path d="M1338 1233 c6 -2 18 -2 25 0 6 3 1 5 -13 5 -14 0 -19 -2 -12 -5z"/>
<path d="M1303 1203 c9 -2 25 -2 35 0 9 3 1 5 -18 5 -19 0 -27 -2 -17 -5z"/>
<path d="M1389 1193 c-13 -16 -12 -17 4 -4 16 13 21 21 13 21 -2 0 -10 -8 -17
-17z"/>
<path d="M1298 1173 c7 -3 16 -2 19 1 4 3 -2 6 -13 5 -11 0 -14 -3 -6 -6z"/>
<path d="M1384 1088 l-29 -33 33 29 c30 28 37 36 29 36 -2 0 -16 -15 -33 -32z"/>
<path d="M1535 1099 c-4 -6 -5 -12 -2 -15 2 -3 7 2 10 11 7 17 1 20 -8 4z"/>
<path d="M1411 1025 c-17 -20 -31 -39 -31 -42 0 -4 3 -3 8 3 4 5 20 24 36 42
17 17 27 32 24 32 -3 0 -20 -16 -37 -35z"/>
<path d="M1344 988 l-29 -33 33 29 c30 28 37 36 29 36 -2 0 -16 -15 -33 -32z"/>
<path d="M1758 1002 c-63 -23 -73 -36 -13 -18 26 8 53 20 58 25 13 13 13 13
-45 -7z"/>
<path d="M1445 959 c-4 -6 -5 -12 -2 -15 2 -3 7 2 10 11 7 17 1 20 -8 4z"/>
<path d="M1401 938 c-16 -43 -22 -68 -18 -68 3 0 12 20 20 45 16 45 14 65 -2
23z"/>
<path d="M1426 913 c-6 -14 -5 -15 5 -6 7 7 10 15 7 18 -3 3 -9 -2 -12 -12z"/>
<path d="M1420 858 c-15 -21 -17 -28 -6 -19 16 13 41 51 33 51 -2 0 -14 -15
-27 -32z"/>
<path d="M1366 843 c-6 -14 -5 -15 5 -6 7 7 10 15 7 18 -3 3 -9 -2 -12 -12z"/>
<path d="M1591 801 c-6 -10 -7 -22 -3 -26 4 -3 2 -5 -3 -3 -9 3 -59 -48 -105
-107 -14 -18 -14 -19 1 -7 9 6 19 9 22 5 13 -12 7 -32 -20 -65 -23 -28 -24
-30 -4 -13 13 11 34 45 48 75 13 30 35 66 48 80 13 14 27 37 30 53 8 31 0 36
-14 8z m-21 -55 c0 -2 -8 -10 -17 -17 -16 -13 -17 -12 -4 4 13 16 21 21 21 13z
m-43 -60 c-7 -13 -15 -22 -20 -19 -5 3 -1 14 9 24 22 25 24 24 11 -5z"/>
<path d="M1371 794 c0 -11 3 -14 6 -6 3 7 2 16 -1 19 -3 4 -6 -2 -5 -13z"/>
<path d="M1759 757 c-9 -12 -22 -40 -29 -62 -16 -49 -58 -135 -66 -135 -8 0
-2 22 25 89 l22 55 -48 -44 c-26 -24 -50 -45 -53 -48 -3 -2 7 -1 23 3 39 10
35 -12 -5 -24 -20 -5 -25 -10 -14 -10 28 -1 9 -17 -34 -29 -19 -5 -34 -14 -33
-20 2 -6 -4 -9 -12 -6 -19 7 -51 -22 -32 -29 7 -3 5 -6 -5 -6 -10 -1 -18 -9
-18 -19 0 -10 -7 -27 -15 -38 -21 -28 -18 -34 15 -34 17 0 30 -3 30 -7 0 -13
-14 -30 -30 -36 -10 -4 -8 -6 8 -6 12 -1 22 -4 22 -8 0 -4 -21 -30 -47 -58
-39 -40 -40 -43 -8 -12 46 42 81 52 49 14 -10 -13 4 0 31 29 28 29 70 87 95
130 42 73 154 323 148 329 -2 2 -10 -7 -19 -18z m-229 -247 c0 -5 -5 -10 -11
-10 -5 0 -7 5 -4 10 3 6 8 10 11 10 2 0 4 -4 4 -10z m106 -37 c-11 -11 -17 4
-9 23 7 18 8 18 11 1 2 -10 1 -21 -2 -24z m-86 21 c0 -4 -8 -13 -17 -21 -16
-13 -16 -13 7 -7 14 3 35 12 47 20 31 20 39 17 18 -6 -9 -10 -33 -24 -51 -30
-28 -10 -37 -9 -50 5 -18 17 -18 17 11 33 23 13 35 15 35 6z m-50 -64 c0 -13
-7 -20 -20 -20 -18 0 -19 2 -8 20 7 11 16 20 20 20 5 0 8 -9 8 -20z m110 3 c0
-9 -32 -43 -41 -43 -4 0 -7 9 -6 19 0 11 4 18 8 15 4 -2 10 0 14 6 7 11 25 14
25 3z m-60 -78 c0 -9 -7 -18 -15 -21 -8 -4 -12 -11 -8 -18 3 -6 2 -8 -2 -3
-11 10 -14 48 -3 41 4 -3 8 0 8 5 0 6 5 11 10 11 6 0 10 -7 10 -15z"/>
<path d="M1394 688 l-29 -33 33 29 c30 28 37 36 29 36 -2 0 -16 -15 -33 -32z"/>
<path d="M1379 644 c-7 -9 -6 -12 6 -10 22 3 40 23 20 23 -8 0 -20 -6 -26 -13z"/>
<path d="M1424 618 l-29 -33 33 29 c30 28 37 36 29 36 -2 0 -16 -15 -33 -32z"/>
<path d="M1546 571 c-4 -5 3 -7 14 -4 23 6 26 13 6 13 -8 0 -17 -4 -20 -9z"/>
<path d="M1451 494 c0 -11 3 -14 6 -6 3 7 2 16 -1 19 -3 4 -6 -2 -5 -13z"/>
<path d="M1427 437 l-17 -32 20 24 c17 20 26 41 18 41 -2 0 -11 -15 -21 -33z"/>
<path d="M1387 359 c7 -7 15 -10 18 -7 3 3 -2 9 -12 12 -14 6 -15 5 -6 -5z"/>
<path d="M1428 343 c6 -2 18 -2 25 0 6 3 1 5 -13 5 -14 0 -19 -2 -12 -5z"/>
<path d="M1279 323 c-13 -16 -12 -17 4 -4 16 13 21 21 13 21 -2 0 -10 -8 -17
-17z"/>
<path d="M1398 323 c7 -3 16 -2 19 1 4 3 -2 6 -13 5 -11 0 -14 -3 -6 -6z"/>
<path d="M1393 293 c9 -2 23 -2 30 0 6 3 -1 5 -18 5 -16 0 -22 -2 -12 -5z"/>
<path d="M1500 232 c-19 -16 -48 -36 -65 -45 -16 -9 -25 -16 -19 -17 13 0 98
55 114 75 19 23 8 18 -30 -13z"/>
</g>
</svg>
